<svg width="600" height="12550" viewBox="0 0 600 12550 " fill="none" xmlns="http://www.w3.org/2000/svg"><path d="M 400 200 V 300" stroke-width="5" stroke="url(#paint0_linear_207_14200)"></path><path d="M 400 300 C 400 350 400 350 350 350" stroke-width="5" stroke="url(#paint0_linear_207_14200)"></path><path d="M 350 350 H 250" stroke-width="5" stroke="url(#paint0_linear_207_14200)"></path><path d="M 250 350 C 200 350 200 350 200 400" stroke-width="5" stroke="url(#paint0_linear_207_14200)"></path><path d="M 200 400 V 470" stroke-width="5" stroke="url(#paint0_linear_207_14200)"></path><path d="M 200 470 C 200 520 200 520 250 520" stroke-width="5" stroke="url(#paint0_linear_207_14200)"></path><path d="M 350 520 H 250" stroke-width="5" stroke="url(#paint0_linear_207_14200)"></path><path d="M 350 520 C 400 520 400 520 400 570" stroke-width="5" stroke="url(#paint0_linear_207_14200)"></path><path d="M 400 570 V 670" stroke-width="5" stroke="url(#paint0_linear_207_14200)"></path><path d="M 400 670 C 400 720 400 720 350 720" stroke-width="5" stroke="url(#paint0_linear_207_14200)"></path><path d="M 350 720 H 250" stroke-width="5" stroke="url(#paint0_linear_207_14200)"></path><path d="M 250 720 C 200 720 200 720 200 770" stroke-width="5" stroke="url(#paint0_linear_207_14200)"></path><path d="M 200 770 V 3950" stroke-width="5" stroke="url(#paint0_linear_207_14200)"></path><path d="M 200 3950 C 200 4000 200 4000 250 4000" stroke-width="5" stroke="url(#paint0_linear_207_14200)"></path><path d="M 350 4000 H 250" stroke-width="5" stroke="url(#paint0_linear_207_14200)"></path><path d="M 350 4000 C 400 4000 400 4000 400 4050" stroke-width="5" stroke="url(#paint0_linear_207_14200)"></path><path d="M 400 4050 V 9770" stroke-width="5" stroke="url(#paint0_linear_207_14200)"></path><defs><linearGradient id="paint0_linear_207_14200" x1="8.51253" y1="731.998" x2="308.147" y2="1023.79" gradientUnits="userSpaceOnUse"><stop stop-color="gray"></stop><stop offset="1" stop-color="blue"></stop></linearGradient></defs></svg>