<svg width="500" height="12550" viewBox="0 0 500 12550" fill="none" xmlns="http://www.w3.org/2000/svg"><path d="M 350 0 V 400" stroke-width="15" stroke="url(#paint0_linear_207_14200)"></path><path d="M 350 400 C 350 450 350 450 300 450" stroke-width="15" stroke="url(#paint0_linear_207_14200)"></path><path d="M 300 450 H 250" stroke-width="15" stroke="url(#paint0_linear_207_14200)"></path><path d="M 250 450 C 200 450 200 450 200 500" stroke-width="15" stroke="url(#paint0_linear_207_14200)"></path><path d="M 200 500 V 770" stroke-width="15" stroke="url(#paint0_linear_207_14200)"></path><path d="M 200 770 C 200 820 200 820 250 820" stroke-width="15" stroke="url(#paint0_linear_207_14200)"></path><path d="M 300 820 H 250" stroke-width="15" stroke="url(#paint0_linear_207_14200)"></path><path d="M 300 820 C 350 820 350 820 350 870" stroke-width="15" stroke="url(#paint0_linear_207_14200)"></path><path d="M 350 870 V 1770" stroke-width="15" stroke="url(#paint0_linear_207_14200)"></path><path d="M 350 1770 C 350 1820 350 1820 300 1820" stroke-width="15" stroke="url(#paint0_linear_207_14200)"></path><path d="M 300 1820 H 250" stroke-width="15" stroke="url(#paint0_linear_207_14200)"></path><path d="M 250 1820 C 200 1820 200 1820 200 1870" stroke-width="15" stroke="url(#paint0_linear_207_14200)"></path><path d="M 200 1870 V 3950" stroke-width="15" stroke="url(#paint0_linear_207_14200)"></path><path d="M 200 3950 C 200 4000 200 4000 250 4000" stroke-width="15" stroke="url(#paint0_linear_207_14200)"></path><path d="M 300 4000 H 250" stroke-width="15" stroke="url(#paint0_linear_207_14200)"></path><path d="M 300 4000 C 350 4000 350 4000 350 4050" stroke-width="15" stroke="url(#paint0_linear_207_14200)"></path><path d="M 350 4050 V 9770" stroke-width="15" stroke="url(#paint0_linear_207_14200)"></path><defs><linearGradient id="paint0_linear_207_14200" x1="8.51253" y1="731.998" x2="308.147" y2="1023.79" gradientUnits="userSpaceOnUse"><stop stop-color="red"></stop><stop offset="1" stop-color="blue"></stop></linearGradient></defs></svg>